<svg xmlns="http://www.w3.org/2000/svg" viewBox="0 0 32 32" width="32" height="32">
  <defs>
    <linearGradient id="r" x1="0" y1="0" x2="1" y2="1">
      <stop offset="0" stop-color="#ff6a4d"/>
      <stop offset="1" stop-color="#e23b2e"/>
    </linearGradient>
  </defs>
  <!-- white app-icon tile, matching the generated JavaJive logo -->
  <rect x="1" y="1" width="30" height="30" rx="7.5" fill="#ffffff" stroke="#ececec" stroke-width="1"/>
  <!-- jive: eighth music note rising like steam -->
  <ellipse cx="13.3" cy="12.3" rx="2.2" ry="1.7" transform="rotate(-20 13.3 12.3)" fill="url(#r)"/>
  <rect x="14.9" y="6.2" width="1.5" height="6.2" rx="0.6" fill="url(#r)"/>
  <path d="M16.4 6.2c3 .6 3.9 2.3 3.2 4.2-.1-1.5-1.3-2.4-3.2-2.7z" fill="url(#r)"/>
  <!-- java: coffee cup -->
  <path d="M8.4 17.4h9.6v2.3a4.8 4.8 0 0 1-9.6 0z" fill="url(#r)"/>
  <path d="M18 18.1h1.6a2.7 2.7 0 0 1 0 5.4H18.2" fill="none" stroke="url(#r)" stroke-width="1.9" stroke-linecap="round"/>
  <rect x="10.7" y="24.9" width="4.9" height="1.8" rx="0.9" fill="url(#r)"/>
</svg>
